ISO-10303-21;
HEADER;
/* Generated by software containing ST-Developer
 * from STEP Tools, Inc. (www.steptools.com) 
 */

FILE_DESCRIPTION(
/* description */ (''),
/* implementation_level */ '2;1');

FILE_NAME(
/* name */ 'Hardcase_Gridfinity_Perimeter_Template.stp',
/* time_stamp */ '2026-07-14T01:31:11Z',
/* author */ (''),
/* organization */ (''),
/* preprocessor_version */ 'ST-DEVELOPER v20.1',
/* originating_system */ 'Autodesk Translation Framework v15.8.0.0',
/* authorisation */ '');

FILE_SCHEMA (('AUTOMOTIVE_DESIGN { 1 0 10303 214 3 1 1 }'));
ENDSEC;

DATA;
#10=MECHANICAL_DESIGN_GEOMETRIC_PRESENTATION_REPRESENTATION('',(#23,#24),
#927);
#11=ITEM_DEFINED_TRANSFORMATION($,$,#565,#611);
#12=ITEM_DEFINED_TRANSFORMATION($,$,#588,#612);
#13=(
REPRESENTATION_RELATIONSHIP($,$,#941,#940)
REPRESENTATION_RELATIONSHIP_WITH_TRANSFORMATION(#11)
SHAPE_REPRESENTATION_RELATIONSHIP()
);
#14=(
REPRESENTATION_RELATIONSHIP($,$,#942,#940)
REPRESENTATION_RELATIONSHIP_WITH_TRANSFORMATION(#12)
SHAPE_REPRESENTATION_RELATIONSHIP()
);
#15=CONTEXT_DEPENDENT_SHAPE_REPRESENTATION(#13,#938);
#16=CONTEXT_DEPENDENT_SHAPE_REPRESENTATION(#14,#939);
#17=NEXT_ASSEMBLY_USAGE_OCCURRENCE('Side Test:1','Side Test:1',
'Side Test:1',#944,#945,'Side Test:1');
#18=NEXT_ASSEMBLY_USAGE_OCCURRENCE('Front Test:1','Front Test:1',
'Front Test:1',#944,#946,'Front Test:1');
#19=SHAPE_REPRESENTATION_RELATIONSHIP('SRR','None',#941,#21);
#20=SHAPE_REPRESENTATION_RELATIONSHIP('SRR','None',#942,#22);
#21=ADVANCED_BREP_SHAPE_REPRESENTATION('',(#25),#925);
#22=ADVANCED_BREP_SHAPE_REPRESENTATION('',(#26),#926);
#23=STYLED_ITEM('',(#959),#25);
#24=STYLED_ITEM('',(#959),#26);
#25=MANIFOLD_SOLID_BREP('Side Test',#539);
#26=MANIFOLD_SOLID_BREP('Front Test',#540);
#27=FACE_BOUND('',#96,.T.);
#28=FACE_BOUND('',#98,.T.);
#29=FACE_BOUND('',#112,.T.);
#30=FACE_BOUND('',#114,.T.);
#31=CIRCLE('',#568,9.05000000000354);
#32=CIRCLE('',#569,9.05000000000354);
#33=CIRCLE('',#572,9.04999999999999);
#34=CIRCLE('',#573,9.04999999999999);
#35=CIRCLE('',#578,19.05);
#36=CIRCLE('',#579,19.05);
#37=CIRCLE('',#582,19.05);
#38=CIRCLE('',#583,19.05);
#39=CIRCLE('',#590,9.05000000000001);
#40=CIRCLE('',#591,9.05000000000001);
#41=CIRCLE('',#594,9.050000000004);
#42=CIRCLE('',#595,9.050000000004);
#43=CIRCLE('',#601,19.05);
#44=CIRCLE('',#602,19.05);
#45=CIRCLE('',#605,19.05);
#46=CIRCLE('',#606,19.05);
#47=CYLINDRICAL_SURFACE('',#567,9.05000000000354);
#48=CYLINDRICAL_SURFACE('',#571,9.04999999999999);
#49=CYLINDRICAL_SURFACE('',#577,19.05);
#50=CYLINDRICAL_SURFACE('',#581,19.05);
#51=CYLINDRICAL_SURFACE('',#589,9.05000000000001);
#52=CYLINDRICAL_SURFACE('',#593,9.050000000004);
#53=CYLINDRICAL_SURFACE('',#600,19.05);
#54=CYLINDRICAL_SURFACE('',#604,19.05);
#55=FACE_OUTER_BOUND('',#83,.T.);
#56=FACE_OUTER_BOUND('',#84,.T.);
#57=FACE_OUTER_BOUND('',#85,.T.);
#58=FACE_OUTER_BOUND('',#86,.T.);
#59=FACE_OUTER_BOUND('',#87,.T.);
#60=FACE_OUTER_BOUND('',#88,.T.);
#61=FACE_OUTER_BOUND('',#89,.T.);
#62=FACE_OUTER_BOUND('',#90,.T.);
#63=FACE_OUTER_BOUND('',#91,.T.);
#64=FACE_OUTER_BOUND('',#92,.T.);
#65=FACE_OUTER_BOUND('',#93,.T.);
#66=FACE_OUTER_BOUND('',#94,.T.);
#67=FACE_OUTER_BOUND('',#95,.T.);
#68=FACE_OUTER_BOUND('',#97,.T.);
#69=FACE_OUTER_BOUND('',#99,.T.);
#70=FACE_OUTER_BOUND('',#100,.T.);
#71=FACE_OUTER_BOUND('',#101,.T.);
#72=FACE_OUTER_BOUND('',#102,.T.);
#73=FACE_OUTER_BOUND('',#103,.T.);
#74=FACE_OUTER_BOUND('',#104,.T.);
#75=FACE_OUTER_BOUND('',#105,.T.);
#76=FACE_OUTER_BOUND('',#106,.T.);
#77=FACE_OUTER_BOUND('',#107,.T.);
#78=FACE_OUTER_BOUND('',#108,.T.);
#79=FACE_OUTER_BOUND('',#109,.T.);
#80=FACE_OUTER_BOUND('',#110,.T.);
#81=FACE_OUTER_BOUND('',#111,.T.);
#82=FACE_OUTER_BOUND('',#113,.T.);
#83=EDGE_LOOP('',(#347,#348,#349,#350));
#84=EDGE_LOOP('',(#351,#352,#353,#354));
#85=EDGE_LOOP('',(#355,#356,#357,#358));
#86=EDGE_LOOP('',(#359,#360,#361,#362));
#87=EDGE_LOOP('',(#363,#364,#365,#366));
#88=EDGE_LOOP('',(#367,#368,#369,#370));
#89=EDGE_LOOP('',(#371,#372,#373,#374));
#90=EDGE_LOOP('',(#375,#376,#377,#378));
#91=EDGE_LOOP('',(#379,#380,#381,#382));
#92=EDGE_LOOP('',(#383,#384,#385,#386));
#93=EDGE_LOOP('',(#387,#388,#389,#390));
#94=EDGE_LOOP('',(#391,#392,#393,#394));
#95=EDGE_LOOP('',(#395,#396,#397,#398,#399,#400));
#96=EDGE_LOOP('',(#401,#402,#403,#404,#405,#406));
#97=EDGE_LOOP('',(#407,#408,#409,#410,#411,#412));
#98=EDGE_LOOP('',(#413,#414,#415,#416,#417,#418));
#99=EDGE_LOOP('',(#419,#420,#421,#422));
#100=EDGE_LOOP('',(#423,#424,#425,#426));
#101=EDGE_LOOP('',(#427,#428,#429,#430));
#102=EDGE_LOOP('',(#431,#432,#433,#434));
#103=EDGE_LOOP('',(#435,#436,#437,#438));
#104=EDGE_LOOP('',(#439,#440,#441,#442));
#105=EDGE_LOOP('',(#443,#444,#445,#446));
#106=EDGE_LOOP('',(#447,#448,#449,#450));
#107=EDGE_LOOP('',(#451,#452,#453,#454));
#108=EDGE_LOOP('',(#455,#456,#457,#458));
#109=EDGE_LOOP('',(#459,#460,#461,#462));
#110=EDGE_LOOP('',(#463,#464,#465,#466));
#111=EDGE_LOOP('',(#467,#468,#469,#470,#471,#472));
#112=EDGE_LOOP('',(#473,#474,#475,#476,#477,#478));
#113=EDGE_LOOP('',(#479,#480,#481,#482,#483,#484));
#114=EDGE_LOOP('',(#485,#486,#487,#488,#489,#490));
#115=LINE('',#772,#171);
#116=LINE('',#774,#172);
#117=LINE('',#776,#173);
#118=LINE('',#777,#174);
#119=LINE('',#783,#175);
#120=LINE('',#786,#176);
#121=LINE('',#788,#177);
#122=LINE('',#789,#178);
#123=LINE('',#795,#179);
#124=LINE('',#798,#180);
#125=LINE('',#800,#181);
#126=LINE('',#801,#182);
#127=LINE('',#803,#183);
#128=LINE('',#804,#184);
#129=LINE('',#808,#185);
#130=LINE('',#810,#186);
#131=LINE('',#812,#187);
#132=LINE('',#813,#188);
#133=LINE('',#819,#189);
#134=LINE('',#822,#190);
#135=LINE('',#824,#191);
#136=LINE('',#825,#192);
#137=LINE('',#831,#193);
#138=LINE('',#834,#194);
#139=LINE('',#836,#195);
#140=LINE('',#837,#196);
#141=LINE('',#839,#197);
#142=LINE('',#840,#198);
#143=LINE('',#849,#199);
#144=LINE('',#852,#200);
#145=LINE('',#855,#201);
#146=LINE('',#857,#202);
#147=LINE('',#858,#203);
#148=LINE('',#864,#204);
#149=LINE('',#867,#205);
#150=LINE('',#869,#206);
#151=LINE('',#870,#207);
#152=LINE('',#873,#208);
#153=LINE('',#875,#209);
#154=LINE('',#876,#210);
#155=LINE('',#878,#211);
#156=LINE('',#879,#212);
#157=LINE('',#883,#213);
#158=LINE('',#885,#214);
#159=LINE('',#887,#215);
#160=LINE('',#888,#216);
#161=LINE('',#894,#217);
#162=LINE('',#897,#218);
#163=LINE('',#899,#219);
#164=LINE('',#900,#220);
#165=LINE('',#906,#221);
#166=LINE('',#909,#222);
#167=LINE('',#911,#223);
#168=LINE('',#912,#224);
#169=LINE('',#914,#225);
#170=LINE('',#915,#226);
#171=VECTOR('',#619,10.);
#172=VECTOR('',#620,10.);
#173=VECTOR('',#621,10.);
#174=VECTOR('',#622,10.);
#175=VECTOR('',#629,10.);
#176=VECTOR('',#632,10.);
#177=VECTOR('',#633,10.);
#178=VECTOR('',#634,10.);
#179=VECTOR('',#641,10.);
#180=VECTOR('',#644,10.);
#181=VECTOR('',#645,10.);
#182=VECTOR('',#646,10.);
#183=VECTOR('',#649,10.);
#184=VECTOR('',#650,10.);
#185=VECTOR('',#653,10.);
#186=VECTOR('',#654,10.);
#187=VECTOR('',#655,10.);
#188=VECTOR('',#656,10.);
#189=VECTOR('',#663,10.);
#190=VECTOR('',#666,10.);
#191=VECTOR('',#667,10.);
#192=VECTOR('',#668,10.);
#193=VECTOR('',#675,10.);
#194=VECTOR('',#678,10.);
#195=VECTOR('',#679,10.);
#196=VECTOR('',#680,10.);
#197=VECTOR('',#683,10.);
#198=VECTOR('',#684,10.);
#199=VECTOR('',#695,10.);
#200=VECTOR('',#698,10.);
#201=VECTOR('',#701,10.);
#202=VECTOR('',#702,10.);
#203=VECTOR('',#703,10.);
#204=VECTOR('',#710,10.);
#205=VECTOR('',#713,10.);
#206=VECTOR('',#714,10.);
#207=VECTOR('',#715,10.);
#208=VECTOR('',#718,10.);
#209=VECTOR('',#719,10.);
#210=VECTOR('',#720,10.);
#211=VECTOR('',#723,10.);
#212=VECTOR('',#724,10.);
#213=VECTOR('',#727,10.);
#214=VECTOR('',#728,10.);
#215=VECTOR('',#729,10.);
#216=VECTOR('',#730,10.);
#217=VECTOR('',#737,10.);
#218=VECTOR('',#740,10.);
#219=VECTOR('',#741,10.);
#220=VECTOR('',#742,10.);
#221=VECTOR('',#749,10.);
#222=VECTOR('',#752,10.);
#223=VECTOR('',#753,10.);
#224=VECTOR('',#754,10.);
#225=VECTOR('',#757,10.);
#226=VECTOR('',#758,10.);
#227=VERTEX_POINT('',#770);
#228=VERTEX_POINT('',#771);
#229=VERTEX_POINT('',#773);
#230=VERTEX_POINT('',#775);
#231=VERTEX_POINT('',#779);
#232=VERTEX_POINT('',#781);
#233=VERTEX_POINT('',#785);
#234=VERTEX_POINT('',#787);
#235=VERTEX_POINT('',#791);
#236=VERTEX_POINT('',#793);
#237=VERTEX_POINT('',#797);
#238=VERTEX_POINT('',#799);
#239=VERTEX_POINT('',#806);
#240=VERTEX_POINT('',#807);
#241=VERTEX_POINT('',#809);
#242=VERTEX_POINT('',#811);
#243=VERTEX_POINT('',#815);
#244=VERTEX_POINT('',#817);
#245=VERTEX_POINT('',#821);
#246=VERTEX_POINT('',#823);
#247=VERTEX_POINT('',#827);
#248=VERTEX_POINT('',#829);
#249=VERTEX_POINT('',#833);
#250=VERTEX_POINT('',#835);
#251=VERTEX_POINT('',#845);
#252=VERTEX_POINT('',#846);
#253=VERTEX_POINT('',#848);
#254=VERTEX_POINT('',#850);
#255=VERTEX_POINT('',#854);
#256=VERTEX_POINT('',#856);
#257=VERTEX_POINT('',#860);
#258=VERTEX_POINT('',#862);
#259=VERTEX_POINT('',#866);
#260=VERTEX_POINT('',#868);
#261=VERTEX_POINT('',#872);
#262=VERTEX_POINT('',#874);
#263=VERTEX_POINT('',#881);
#264=VERTEX_POINT('',#882);
#265=VERTEX_POINT('',#884);
#266=VERTEX_POINT('',#886);
#267=VERTEX_POINT('',#890);
#268=VERTEX_POINT('',#892);
#269=VERTEX_POINT('',#896);
#270=VERTEX_POINT('',#898);
#271=VERTEX_POINT('',#902);
#272=VERTEX_POINT('',#904);
#273=VERTEX_POINT('',#908);
#274=VERTEX_POINT('',#910);
#275=EDGE_CURVE('',#227,#228,#115,.T.);
#276=EDGE_CURVE('',#227,#229,#116,.T.);
#277=EDGE_CURVE('',#230,#229,#117,.T.);
#278=EDGE_CURVE('',#228,#230,#118,.T.);
#279=EDGE_CURVE('',#228,#231,#31,.T.);
#280=EDGE_CURVE('',#232,#230,#32,.T.);
#281=EDGE_CURVE('',#231,#232,#119,.T.);
#282=EDGE_CURVE('',#231,#233,#120,.T.);
#283=EDGE_CURVE('',#234,#232,#121,.T.);
#284=EDGE_CURVE('',#233,#234,#122,.T.);
#285=EDGE_CURVE('',#233,#235,#33,.T.);
#286=EDGE_CURVE('',#236,#234,#34,.T.);
#287=EDGE_CURVE('',#235,#236,#123,.T.);
#288=EDGE_CURVE('',#235,#237,#124,.T.);
#289=EDGE_CURVE('',#238,#236,#125,.T.);
#290=EDGE_CURVE('',#237,#238,#126,.T.);
#291=EDGE_CURVE('',#237,#227,#127,.T.);
#292=EDGE_CURVE('',#229,#238,#128,.T.);
#293=EDGE_CURVE('',#239,#240,#129,.T.);
#294=EDGE_CURVE('',#239,#241,#130,.T.);
#295=EDGE_CURVE('',#242,#241,#131,.T.);
#296=EDGE_CURVE('',#240,#242,#132,.T.);
#297=EDGE_CURVE('',#240,#243,#35,.T.);
#298=EDGE_CURVE('',#244,#242,#36,.T.);
#299=EDGE_CURVE('',#243,#244,#133,.T.);
#300=EDGE_CURVE('',#243,#245,#134,.T.);
#301=EDGE_CURVE('',#246,#244,#135,.T.);
#302=EDGE_CURVE('',#245,#246,#136,.T.);
#303=EDGE_CURVE('',#245,#247,#37,.T.);
#304=EDGE_CURVE('',#248,#246,#38,.T.);
#305=EDGE_CURVE('',#247,#248,#137,.T.);
#306=EDGE_CURVE('',#249,#247,#138,.T.);
#307=EDGE_CURVE('',#250,#248,#139,.T.);
#308=EDGE_CURVE('',#249,#250,#140,.T.);
#309=EDGE_CURVE('',#249,#239,#141,.T.);
#310=EDGE_CURVE('',#241,#250,#142,.T.);
#311=EDGE_CURVE('',#251,#252,#39,.T.);
#312=EDGE_CURVE('',#252,#253,#143,.T.);
#313=EDGE_CURVE('',#254,#253,#40,.T.);
#314=EDGE_CURVE('',#251,#254,#144,.T.);
#315=EDGE_CURVE('',#255,#251,#145,.T.);
#316=EDGE_CURVE('',#256,#254,#146,.T.);
#317=EDGE_CURVE('',#255,#256,#147,.T.);
#318=EDGE_CURVE('',#257,#255,#41,.T.);
#319=EDGE_CURVE('',#258,#256,#42,.T.);
#320=EDGE_CURVE('',#257,#258,#148,.T.);
#321=EDGE_CURVE('',#259,#257,#149,.T.);
#322=EDGE_CURVE('',#260,#258,#150,.T.);
#323=EDGE_CURVE('',#259,#260,#151,.T.);
#324=EDGE_CURVE('',#261,#259,#152,.T.);
#325=EDGE_CURVE('',#262,#260,#153,.T.);
#326=EDGE_CURVE('',#261,#262,#154,.T.);
#327=EDGE_CURVE('',#252,#261,#155,.T.);
#328=EDGE_CURVE('',#253,#262,#156,.T.);
#329=EDGE_CURVE('',#263,#264,#157,.T.);
#330=EDGE_CURVE('',#263,#265,#158,.T.);
#331=EDGE_CURVE('',#266,#265,#159,.T.);
#332=EDGE_CURVE('',#264,#266,#160,.T.);
#333=EDGE_CURVE('',#267,#264,#43,.T.);
#334=EDGE_CURVE('',#268,#266,#44,.T.);
#335=EDGE_CURVE('',#267,#268,#161,.T.);
#336=EDGE_CURVE('',#269,#267,#162,.T.);
#337=EDGE_CURVE('',#270,#268,#163,.T.);
#338=EDGE_CURVE('',#269,#270,#164,.T.);
#339=EDGE_CURVE('',#271,#269,#45,.T.);
#340=EDGE_CURVE('',#272,#270,#46,.T.);
#341=EDGE_CURVE('',#271,#272,#165,.T.);
#342=EDGE_CURVE('',#273,#271,#166,.T.);
#343=EDGE_CURVE('',#274,#272,#167,.T.);
#344=EDGE_CURVE('',#273,#274,#168,.T.);
#345=EDGE_CURVE('',#263,#273,#169,.T.);
#346=EDGE_CURVE('',#265,#274,#170,.T.);
#347=ORIENTED_EDGE('',*,*,#275,.F.);
#348=ORIENTED_EDGE('',*,*,#276,.T.);
#349=ORIENTED_EDGE('',*,*,#277,.F.);
#350=ORIENTED_EDGE('',*,*,#278,.F.);
#351=ORIENTED_EDGE('',*,*,#279,.F.);
#352=ORIENTED_EDGE('',*,*,#278,.T.);
#353=ORIENTED_EDGE('',*,*,#280,.F.);
#354=ORIENTED_EDGE('',*,*,#281,.F.);
#355=ORIENTED_EDGE('',*,*,#282,.F.);
#356=ORIENTED_EDGE('',*,*,#281,.T.);
#357=ORIENTED_EDGE('',*,*,#283,.F.);
#358=ORIENTED_EDGE('',*,*,#284,.F.);
#359=ORIENTED_EDGE('',*,*,#285,.F.);
#360=ORIENTED_EDGE('',*,*,#284,.T.);
#361=ORIENTED_EDGE('',*,*,#286,.F.);
#362=ORIENTED_EDGE('',*,*,#287,.F.);
#363=ORIENTED_EDGE('',*,*,#288,.F.);
#364=ORIENTED_EDGE('',*,*,#287,.T.);
#365=ORIENTED_EDGE('',*,*,#289,.F.);
#366=ORIENTED_EDGE('',*,*,#290,.F.);
#367=ORIENTED_EDGE('',*,*,#291,.F.);
#368=ORIENTED_EDGE('',*,*,#290,.T.);
#369=ORIENTED_EDGE('',*,*,#292,.F.);
#370=ORIENTED_EDGE('',*,*,#276,.F.);
#371=ORIENTED_EDGE('',*,*,#293,.F.);
#372=ORIENTED_EDGE('',*,*,#294,.T.);
#373=ORIENTED_EDGE('',*,*,#295,.F.);
#374=ORIENTED_EDGE('',*,*,#296,.F.);
#375=ORIENTED_EDGE('',*,*,#297,.F.);
#376=ORIENTED_EDGE('',*,*,#296,.T.);
#377=ORIENTED_EDGE('',*,*,#298,.F.);
#378=ORIENTED_EDGE('',*,*,#299,.F.);
#379=ORIENTED_EDGE('',*,*,#300,.F.);
#380=ORIENTED_EDGE('',*,*,#299,.T.);
#381=ORIENTED_EDGE('',*,*,#301,.F.);
#382=ORIENTED_EDGE('',*,*,#302,.F.);
#383=ORIENTED_EDGE('',*,*,#303,.F.);
#384=ORIENTED_EDGE('',*,*,#302,.T.);
#385=ORIENTED_EDGE('',*,*,#304,.F.);
#386=ORIENTED_EDGE('',*,*,#305,.F.);
#387=ORIENTED_EDGE('',*,*,#306,.T.);
#388=ORIENTED_EDGE('',*,*,#305,.T.);
#389=ORIENTED_EDGE('',*,*,#307,.F.);
#390=ORIENTED_EDGE('',*,*,#308,.F.);
#391=ORIENTED_EDGE('',*,*,#309,.F.);
#392=ORIENTED_EDGE('',*,*,#308,.T.);
#393=ORIENTED_EDGE('',*,*,#310,.F.);
#394=ORIENTED_EDGE('',*,*,#294,.F.);
#395=ORIENTED_EDGE('',*,*,#309,.T.);
#396=ORIENTED_EDGE('',*,*,#293,.T.);
#397=ORIENTED_EDGE('',*,*,#297,.T.);
#398=ORIENTED_EDGE('',*,*,#300,.T.);
#399=ORIENTED_EDGE('',*,*,#303,.T.);
#400=ORIENTED_EDGE('',*,*,#306,.F.);
#401=ORIENTED_EDGE('',*,*,#291,.T.);
#402=ORIENTED_EDGE('',*,*,#275,.T.);
#403=ORIENTED_EDGE('',*,*,#279,.T.);
#404=ORIENTED_EDGE('',*,*,#282,.T.);
#405=ORIENTED_EDGE('',*,*,#285,.T.);
#406=ORIENTED_EDGE('',*,*,#288,.T.);
#407=ORIENTED_EDGE('',*,*,#310,.T.);
#408=ORIENTED_EDGE('',*,*,#307,.T.);
#409=ORIENTED_EDGE('',*,*,#304,.T.);
#410=ORIENTED_EDGE('',*,*,#301,.T.);
#411=ORIENTED_EDGE('',*,*,#298,.T.);
#412=ORIENTED_EDGE('',*,*,#295,.T.);
#413=ORIENTED_EDGE('',*,*,#292,.T.);
#414=ORIENTED_EDGE('',*,*,#289,.T.);
#415=ORIENTED_EDGE('',*,*,#286,.T.);
#416=ORIENTED_EDGE('',*,*,#283,.T.);
#417=ORIENTED_EDGE('',*,*,#280,.T.);
#418=ORIENTED_EDGE('',*,*,#277,.T.);
#419=ORIENTED_EDGE('',*,*,#311,.T.);
#420=ORIENTED_EDGE('',*,*,#312,.T.);
#421=ORIENTED_EDGE('',*,*,#313,.F.);
#422=ORIENTED_EDGE('',*,*,#314,.F.);
#423=ORIENTED_EDGE('',*,*,#315,.T.);
#424=ORIENTED_EDGE('',*,*,#314,.T.);
#425=ORIENTED_EDGE('',*,*,#316,.F.);
#426=ORIENTED_EDGE('',*,*,#317,.F.);
#427=ORIENTED_EDGE('',*,*,#318,.T.);
#428=ORIENTED_EDGE('',*,*,#317,.T.);
#429=ORIENTED_EDGE('',*,*,#319,.F.);
#430=ORIENTED_EDGE('',*,*,#320,.F.);
#431=ORIENTED_EDGE('',*,*,#321,.T.);
#432=ORIENTED_EDGE('',*,*,#320,.T.);
#433=ORIENTED_EDGE('',*,*,#322,.F.);
#434=ORIENTED_EDGE('',*,*,#323,.F.);
#435=ORIENTED_EDGE('',*,*,#324,.T.);
#436=ORIENTED_EDGE('',*,*,#323,.T.);
#437=ORIENTED_EDGE('',*,*,#325,.F.);
#438=ORIENTED_EDGE('',*,*,#326,.F.);
#439=ORIENTED_EDGE('',*,*,#327,.T.);
#440=ORIENTED_EDGE('',*,*,#326,.T.);
#441=ORIENTED_EDGE('',*,*,#328,.F.);
#442=ORIENTED_EDGE('',*,*,#312,.F.);
#443=ORIENTED_EDGE('',*,*,#329,.F.);
#444=ORIENTED_EDGE('',*,*,#330,.T.);
#445=ORIENTED_EDGE('',*,*,#331,.F.);
#446=ORIENTED_EDGE('',*,*,#332,.F.);
#447=ORIENTED_EDGE('',*,*,#333,.T.);
#448=ORIENTED_EDGE('',*,*,#332,.T.);
#449=ORIENTED_EDGE('',*,*,#334,.F.);
#450=ORIENTED_EDGE('',*,*,#335,.F.);
#451=ORIENTED_EDGE('',*,*,#336,.T.);
#452=ORIENTED_EDGE('',*,*,#335,.T.);
#453=ORIENTED_EDGE('',*,*,#337,.F.);
#454=ORIENTED_EDGE('',*,*,#338,.F.);
#455=ORIENTED_EDGE('',*,*,#339,.T.);
#456=ORIENTED_EDGE('',*,*,#338,.T.);
#457=ORIENTED_EDGE('',*,*,#340,.F.);
#458=ORIENTED_EDGE('',*,*,#341,.F.);
#459=ORIENTED_EDGE('',*,*,#342,.T.);
#460=ORIENTED_EDGE('',*,*,#341,.T.);
#461=ORIENTED_EDGE('',*,*,#343,.F.);
#462=ORIENTED_EDGE('',*,*,#344,.F.);
#463=ORIENTED_EDGE('',*,*,#345,.T.);
#464=ORIENTED_EDGE('',*,*,#344,.T.);
#465=ORIENTED_EDGE('',*,*,#346,.F.);
#466=ORIENTED_EDGE('',*,*,#330,.F.);
#467=ORIENTED_EDGE('',*,*,#346,.T.);
#468=ORIENTED_EDGE('',*,*,#343,.T.);
#469=ORIENTED_EDGE('',*,*,#340,.T.);
#470=ORIENTED_EDGE('',*,*,#337,.T.);
#471=ORIENTED_EDGE('',*,*,#334,.T.);
#472=ORIENTED_EDGE('',*,*,#331,.T.);
#473=ORIENTED_EDGE('',*,*,#328,.T.);
#474=ORIENTED_EDGE('',*,*,#325,.T.);
#475=ORIENTED_EDGE('',*,*,#322,.T.);
#476=ORIENTED_EDGE('',*,*,#319,.T.);
#477=ORIENTED_EDGE('',*,*,#316,.T.);
#478=ORIENTED_EDGE('',*,*,#313,.T.);
#479=ORIENTED_EDGE('',*,*,#345,.F.);
#480=ORIENTED_EDGE('',*,*,#329,.T.);
#481=ORIENTED_EDGE('',*,*,#333,.F.);
#482=ORIENTED_EDGE('',*,*,#336,.F.);
#483=ORIENTED_EDGE('',*,*,#339,.F.);
#484=ORIENTED_EDGE('',*,*,#342,.F.);
#485=ORIENTED_EDGE('',*,*,#327,.F.);
#486=ORIENTED_EDGE('',*,*,#311,.F.);
#487=ORIENTED_EDGE('',*,*,#315,.F.);
#488=ORIENTED_EDGE('',*,*,#318,.F.);
#489=ORIENTED_EDGE('',*,*,#321,.F.);
#490=ORIENTED_EDGE('',*,*,#324,.F.);
#491=PLANE('',#566);
#492=PLANE('',#570);
#493=PLANE('',#574);
#494=PLANE('',#575);
#495=PLANE('',#576);
#496=PLANE('',#580);
#497=PLANE('',#584);
#498=PLANE('',#585);
#499=PLANE('',#586);
#500=PLANE('',#587);
#501=PLANE('',#592);
#502=PLANE('',#596);
#503=PLANE('',#597);
#504=PLANE('',#598);
#505=PLANE('',#599);
#506=PLANE('',#603);
#507=PLANE('',#607);
#508=PLANE('',#608);
#509=PLANE('',#609);
#510=PLANE('',#610);
#511=ADVANCED_FACE('',(#55),#491,.T.);
#512=ADVANCED_FACE('',(#56),#47,.F.);
#513=ADVANCED_FACE('',(#57),#492,.T.);
#514=ADVANCED_FACE('',(#58),#48,.F.);
#515=ADVANCED_FACE('',(#59),#493,.T.);
#516=ADVANCED_FACE('',(#60),#494,.T.);
#517=ADVANCED_FACE('',(#61),#495,.T.);
#518=ADVANCED_FACE('',(#62),#49,.T.);
#519=ADVANCED_FACE('',(#63),#496,.T.);
#520=ADVANCED_FACE('',(#64),#50,.T.);
#521=ADVANCED_FACE('',(#65),#497,.T.);
#522=ADVANCED_FACE('',(#66),#498,.T.);
#523=ADVANCED_FACE('',(#67,#27),#499,.T.);
#524=ADVANCED_FACE('',(#68,#28),#500,.F.);
#525=ADVANCED_FACE('',(#69),#51,.F.);
#526=ADVANCED_FACE('',(#70),#501,.T.);
#527=ADVANCED_FACE('',(#71),#52,.F.);
#528=ADVANCED_FACE('',(#72),#502,.T.);
#529=ADVANCED_FACE('',(#73),#503,.T.);
#530=ADVANCED_FACE('',(#74),#504,.T.);
#531=ADVANCED_FACE('',(#75),#505,.T.);
#532=ADVANCED_FACE('',(#76),#53,.T.);
#533=ADVANCED_FACE('',(#77),#506,.T.);
#534=ADVANCED_FACE('',(#78),#54,.T.);
#535=ADVANCED_FACE('',(#79),#507,.T.);
#536=ADVANCED_FACE('',(#80),#508,.T.);
#537=ADVANCED_FACE('',(#81,#29),#509,.T.);
#538=ADVANCED_FACE('',(#82,#30),#510,.F.);
#539=CLOSED_SHELL('',(#511,#512,#513,#514,#515,#516,#517,#518,#519,#520,
#521,#522,#523,#524));
#540=CLOSED_SHELL('',(#525,#526,#527,#528,#529,#530,#531,#532,#533,#534,
#535,#536,#537,#538));
#541=DERIVED_UNIT_ELEMENT(#545,1.);
#542=DERIVED_UNIT_ELEMENT(#929,-3.);
#543=DERIVED_UNIT_ELEMENT(#545,1.);
#544=DERIVED_UNIT_ELEMENT(#929,-3.);
#545=(
MASS_UNIT()
NAMED_UNIT(*)
SI_UNIT(.KILO.,.GRAM.)
);
#546=DERIVED_UNIT((#541,#542));
#547=DERIVED_UNIT((#543,#544));
#548=MEASURE_REPRESENTATION_ITEM('density measure',
POSITIVE_RATIO_MEASURE(7850.),#546);
#549=MEASURE_REPRESENTATION_ITEM('density measure',
POSITIVE_RATIO_MEASURE(7850.),#547);
#550=PROPERTY_DEFINITION_REPRESENTATION(#560,#554);
#551=PROPERTY_DEFINITION_REPRESENTATION(#561,#555);
#552=PROPERTY_DEFINITION_REPRESENTATION(#562,#556);
#553=PROPERTY_DEFINITION_REPRESENTATION(#563,#557);
#554=REPRESENTATION('material name',(#558),#925);
#555=REPRESENTATION('density',(#548),#925);
#556=REPRESENTATION('material name',(#559),#926);
#557=REPRESENTATION('density',(#549),#926);
#558=DESCRIPTIVE_REPRESENTATION_ITEM('Steel','Steel');
#559=DESCRIPTIVE_REPRESENTATION_ITEM('Steel','Steel');
#560=PROPERTY_DEFINITION('material property','material name',#945);
#561=PROPERTY_DEFINITION('material property','density of part',#945);
#562=PROPERTY_DEFINITION('material property','material name',#946);
#563=PROPERTY_DEFINITION('material property','density of part',#946);
#564=AXIS2_PLACEMENT_3D('',#767,#613,#614);
#565=AXIS2_PLACEMENT_3D('',#768,#615,#616);
#566=AXIS2_PLACEMENT_3D('',#769,#617,#618);
#567=AXIS2_PLACEMENT_3D('',#778,#623,#624);
#568=AXIS2_PLACEMENT_3D('',#780,#625,#626);
#569=AXIS2_PLACEMENT_3D('',#782,#627,#628);
#570=AXIS2_PLACEMENT_3D('',#784,#630,#631);
#571=AXIS2_PLACEMENT_3D('',#790,#635,#636);
#572=AXIS2_PLACEMENT_3D('',#792,#637,#638);
#573=AXIS2_PLACEMENT_3D('',#794,#639,#640);
#574=AXIS2_PLACEMENT_3D('',#796,#642,#643);
#575=AXIS2_PLACEMENT_3D('',#802,#647,#648);
#576=AXIS2_PLACEMENT_3D('',#805,#651,#652);
#577=AXIS2_PLACEMENT_3D('',#814,#657,#658);
#578=AXIS2_PLACEMENT_3D('',#816,#659,#660);
#579=AXIS2_PLACEMENT_3D('',#818,#661,#662);
#580=AXIS2_PLACEMENT_3D('',#820,#664,#665);
#581=AXIS2_PLACEMENT_3D('',#826,#669,#670);
#582=AXIS2_PLACEMENT_3D('',#828,#671,#672);
#583=AXIS2_PLACEMENT_3D('',#830,#673,#674);
#584=AXIS2_PLACEMENT_3D('',#832,#676,#677);
#585=AXIS2_PLACEMENT_3D('',#838,#681,#682);
#586=AXIS2_PLACEMENT_3D('',#841,#685,#686);
#587=AXIS2_PLACEMENT_3D('',#842,#687,#688);
#588=AXIS2_PLACEMENT_3D('',#843,#689,#690);
#589=AXIS2_PLACEMENT_3D('',#844,#691,#692);
#590=AXIS2_PLACEMENT_3D('',#847,#693,#694);
#591=AXIS2_PLACEMENT_3D('',#851,#696,#697);
#592=AXIS2_PLACEMENT_3D('',#853,#699,#700);
#593=AXIS2_PLACEMENT_3D('',#859,#704,#705);
#594=AXIS2_PLACEMENT_3D('',#861,#706,#707);
#595=AXIS2_PLACEMENT_3D('',#863,#708,#709);
#596=AXIS2_PLACEMENT_3D('',#865,#711,#712);
#597=AXIS2_PLACEMENT_3D('',#871,#716,#717);
#598=AXIS2_PLACEMENT_3D('',#877,#721,#722);
#599=AXIS2_PLACEMENT_3D('',#880,#725,#726);
#600=AXIS2_PLACEMENT_3D('',#889,#731,#732);
#601=AXIS2_PLACEMENT_3D('',#891,#733,#734);
#602=AXIS2_PLACEMENT_3D('',#893,#735,#736);
#603=AXIS2_PLACEMENT_3D('',#895,#738,#739);
#604=AXIS2_PLACEMENT_3D('',#901,#743,#744);
#605=AXIS2_PLACEMENT_3D('',#903,#745,#746);
#606=AXIS2_PLACEMENT_3D('',#905,#747,#748);
#607=AXIS2_PLACEMENT_3D('',#907,#750,#751);
#608=AXIS2_PLACEMENT_3D('',#913,#755,#756);
#609=AXIS2_PLACEMENT_3D('',#916,#759,#760);
#610=AXIS2_PLACEMENT_3D('',#917,#761,#762);
#611=AXIS2_PLACEMENT_3D('',#918,#763,#764);
#612=AXIS2_PLACEMENT_3D('',#919,#765,#766);
#613=DIRECTION('axis',(0.,0.,1.));
#614=DIRECTION('refdir',(1.,0.,0.));
#615=DIRECTION('axis',(0.,0.,1.));
#616=DIRECTION('refdir',(1.,0.,0.));
#617=DIRECTION('center_axis',(0.,0.0174524064372395,0.999847695156392));
#618=DIRECTION('ref_axis',(0.,0.999847695156392,-0.0174524064372395));
#619=DIRECTION('',(0.,-0.999847695156392,0.0174524064372395));
#620=DIRECTION('',(-1.,0.,0.));
#621=DIRECTION('',(0.,0.999847695156392,-0.0174524064372395));
#622=DIRECTION('',(-1.,0.,0.));
#623=DIRECTION('center_axis',(-1.,0.,0.));
#624=DIRECTION('ref_axis',(0.,-0.999999999999608,8.85135004210849E-7));
#625=DIRECTION('center_axis',(-1.,0.,0.));
#626=DIRECTION('ref_axis',(0.,-0.999999999999608,8.85135004210849E-7));
#627=DIRECTION('center_axis',(1.,0.,0.));
#628=DIRECTION('ref_axis',(0.,-0.999999999999608,8.85135004210849E-7));
#629=DIRECTION('',(-1.,0.,0.));
#630=DIRECTION('center_axis',(0.,1.,6.38306486122813E-17));
#631=DIRECTION('ref_axis',(0.,6.38306486122813E-17,-1.));
#632=DIRECTION('',(0.,-6.38306486122813E-17,1.));
#633=DIRECTION('',(0.,6.38306486122813E-17,-1.));
#634=DIRECTION('',(-1.,0.,0.));
#635=DIRECTION('center_axis',(-1.,0.,0.));
#636=DIRECTION('ref_axis',(0.,-0.0174524064372838,0.999847695156391));
#637=DIRECTION('center_axis',(-1.,0.,0.));
#638=DIRECTION('ref_axis',(0.,-0.0174524064372838,0.999847695156391));
#639=DIRECTION('center_axis',(1.,0.,0.));
#640=DIRECTION('ref_axis',(0.,-0.0174524064372838,0.999847695156391));
#641=DIRECTION('',(-1.,0.,0.));
#642=DIRECTION('center_axis',(0.,0.0174524064372839,-0.999847695156391));
#643=DIRECTION('ref_axis',(0.,-0.999847695156391,-0.0174524064372839));
#644=DIRECTION('',(0.,0.999847695156391,0.0174524064372839));
#645=DIRECTION('',(0.,-0.999847695156391,-0.0174524064372839));
#646=DIRECTION('',(-1.,0.,0.));
#647=DIRECTION('center_axis',(0.,-1.,-1.54702673928169E-16));
#648=DIRECTION('ref_axis',(0.,-1.54702673928169E-16,1.));
#649=DIRECTION('',(0.,1.54702673928169E-16,-1.));
#650=DIRECTION('',(0.,-1.54702673928169E-16,1.));
#651=DIRECTION('center_axis',(0.,-0.0174524064372836,0.999847695156391));
#652=DIRECTION('ref_axis',(0.,0.999847695156391,0.0174524064372836));
#653=DIRECTION('',(0.,-0.999847695156391,-0.0174524064372836));
#654=DIRECTION('',(-1.,0.,0.));
#655=DIRECTION('',(0.,0.999847695156391,0.0174524064372836));
#656=DIRECTION('',(-1.,0.,0.));
#657=DIRECTION('center_axis',(-1.,0.,0.));
#658=DIRECTION('ref_axis',(0.,-0.0174524064372836,0.999847695156391));
#659=DIRECTION('center_axis',(1.,0.,0.));
#660=DIRECTION('ref_axis',(0.,-0.0174524064372836,0.999847695156391));
#661=DIRECTION('center_axis',(-1.,0.,0.));
#662=DIRECTION('ref_axis',(0.,-0.0174524064372836,0.999847695156391));
#663=DIRECTION('',(-1.,0.,0.));
#664=DIRECTION('center_axis',(0.,-1.,-6.13044726936373E-17));
#665=DIRECTION('ref_axis',(0.,-6.13044726936373E-17,1.));
#666=DIRECTION('',(0.,6.13044726936373E-17,-1.));
#667=DIRECTION('',(0.,-6.13044726936373E-17,1.));
#668=DIRECTION('',(-1.,0.,0.));
#669=DIRECTION('center_axis',(-1.,0.,0.));
#670=DIRECTION('ref_axis',(0.,-1.,0.));
#671=DIRECTION('center_axis',(1.,0.,0.));
#672=DIRECTION('ref_axis',(0.,-1.,0.));
#673=DIRECTION('center_axis',(-1.,0.,0.));
#674=DIRECTION('ref_axis',(0.,-1.,0.));
#675=DIRECTION('',(-1.,0.,0.));
#676=DIRECTION('center_axis',(0.,-0.0174524064372814,-0.999847695156391));
#677=DIRECTION('ref_axis',(0.,-0.999847695156391,0.0174524064372814));
#678=DIRECTION('',(0.,-0.999847695156391,0.0174524064372814));
#679=DIRECTION('',(0.,-0.999847695156391,0.0174524064372814));
#680=DIRECTION('',(-1.,0.,0.));
#681=DIRECTION('center_axis',(0.,1.,1.4210854715202E-16));
#682=DIRECTION('ref_axis',(0.,1.4210854715202E-16,-1.));
#683=DIRECTION('',(0.,-1.4210854715202E-16,1.));
#684=DIRECTION('',(0.,1.4210854715202E-16,-1.));
#685=DIRECTION('center_axis',(1.,0.,0.));
#686=DIRECTION('ref_axis',(0.,0.,-1.));
#687=DIRECTION('center_axis',(1.,0.,0.));
#688=DIRECTION('ref_axis',(0.,0.,-1.));
#689=DIRECTION('axis',(0.,0.,1.));
#690=DIRECTION('refdir',(1.,0.,0.));
#691=DIRECTION('center_axis',(0.,0.,1.));
#692=DIRECTION('ref_axis',(-0.999847695156391,-0.0174524064372833,0.));
#693=DIRECTION('center_axis',(0.,0.,-1.));
#694=DIRECTION('ref_axis',(-0.999847695156391,-0.0174524064372833,0.));
#695=DIRECTION('',(0.,0.,1.));
#696=DIRECTION('center_axis',(0.,0.,-1.));
#697=DIRECTION('ref_axis',(-0.999847695156391,-0.0174524064372833,0.));
#698=DIRECTION('',(0.,0.,1.));
#699=DIRECTION('center_axis',(-6.47320288905428E-17,1.,0.));
#700=DIRECTION('ref_axis',(-1.,-6.47320288905428E-17,0.));
#701=DIRECTION('',(-1.,-6.47320288905428E-17,0.));
#702=DIRECTION('',(-1.,-6.47320288905428E-17,0.));
#703=DIRECTION('',(0.,0.,1.));
#704=DIRECTION('center_axis',(0.,0.,1.));
#705=DIRECTION('ref_axis',(-9.40678765820523E-7,-0.999999999999558,0.));
#706=DIRECTION('center_axis',(0.,0.,-1.));
#707=DIRECTION('ref_axis',(-9.40678765820523E-7,-0.999999999999558,0.));
#708=DIRECTION('center_axis',(0.,0.,-1.));
#709=DIRECTION('ref_axis',(-9.40678765820523E-7,-0.999999999999558,0.));
#710=DIRECTION('',(0.,0.,1.));
#711=DIRECTION('center_axis',(-0.999847695156392,0.0174524064372412,0.));
#712=DIRECTION('ref_axis',(-0.0174524064372412,-0.999847695156392,0.));
#713=DIRECTION('',(-0.0174524064372412,-0.999847695156392,0.));
#714=DIRECTION('',(-0.0174524064372412,-0.999847695156392,0.));
#715=DIRECTION('',(0.,0.,1.));
#716=DIRECTION('center_axis',(1.0777299641818E-16,-1.,0.));
#717=DIRECTION('ref_axis',(1.,1.0777299641818E-16,0.));
#718=DIRECTION('',(1.,1.0777299641818E-16,0.));
#719=DIRECTION('',(1.,1.0777299641818E-16,0.));
#720=DIRECTION('',(0.,0.,1.));
#721=DIRECTION('center_axis',(0.999847695156391,0.0174524064372833,0.));
#722=DIRECTION('ref_axis',(-0.0174524064372833,0.999847695156391,0.));
#723=DIRECTION('',(-0.0174524064372833,0.999847695156391,0.));
#724=DIRECTION('',(-0.0174524064372833,0.999847695156391,0.));
#725=DIRECTION('center_axis',(0.999847695156391,-0.0174524064372833,0.));
#726=DIRECTION('ref_axis',(0.0174524064372833,0.999847695156391,0.));
#727=DIRECTION('',(-0.0174524064372833,-0.999847695156391,0.));
#728=DIRECTION('',(0.,0.,1.));
#729=DIRECTION('',(0.0174524064372833,0.999847695156391,0.));
#730=DIRECTION('',(0.,0.,1.));
#731=DIRECTION('center_axis',(0.,0.,1.));
#732=DIRECTION('ref_axis',(0.,-1.,0.));
#733=DIRECTION('center_axis',(0.,0.,1.));
#734=DIRECTION('ref_axis',(0.,-1.,0.));
#735=DIRECTION('center_axis',(0.,0.,1.));
#736=DIRECTION('ref_axis',(0.,-1.,0.));
#737=DIRECTION('',(0.,0.,1.));
#738=DIRECTION('center_axis',(6.1283481043526E-17,-1.,0.));
#739=DIRECTION('ref_axis',(1.,6.1283481043526E-17,0.));
#740=DIRECTION('',(1.,6.1283481043526E-17,0.));
#741=DIRECTION('',(1.,6.1283481043526E-17,0.));
#742=DIRECTION('',(0.,0.,1.));
#743=DIRECTION('center_axis',(0.,0.,1.));
#744=DIRECTION('ref_axis',(-0.999847695156391,-0.0174524064372836,0.));
#745=DIRECTION('center_axis',(0.,0.,1.));
#746=DIRECTION('ref_axis',(-0.999847695156391,-0.0174524064372836,0.));
#747=DIRECTION('center_axis',(0.,0.,1.));
#748=DIRECTION('ref_axis',(-0.999847695156391,-0.0174524064372836,0.));
#749=DIRECTION('',(0.,0.,1.));
#750=DIRECTION('center_axis',(-0.999847695156391,-0.0174524064372836,0.));
#751=DIRECTION('ref_axis',(0.0174524064372836,-0.999847695156391,0.));
#752=DIRECTION('',(0.0174524064372836,-0.999847695156391,0.));
#753=DIRECTION('',(0.0174524064372836,-0.999847695156391,0.));
#754=DIRECTION('',(0.,0.,1.));
#755=DIRECTION('center_axis',(-1.01506105108586E-16,1.,0.));
#756=DIRECTION('ref_axis',(-1.,-1.01506105108586E-16,0.));
#757=DIRECTION('',(-1.,-1.01506105108586E-16,0.));
#758=DIRECTION('',(-1.,-1.01506105108586E-16,0.));
#759=DIRECTION('center_axis',(0.,0.,1.));
#760=DIRECTION('ref_axis',(1.,0.,0.));
#761=DIRECTION('center_axis',(0.,0.,1.));
#762=DIRECTION('ref_axis',(1.,0.,0.));
#763=DIRECTION('',(0.,0.,1.));
#764=DIRECTION('',(1.,0.,0.));
#765=DIRECTION('',(0.,0.,1.));
#766=DIRECTION('',(1.,0.,0.));
#767=CARTESIAN_POINT('',(0.,0.,0.));
#768=CARTESIAN_POINT('',(0.,0.,0.));
#769=CARTESIAN_POINT('Origin',(0.,18.8920551433963,-238.408181626616));
#770=CARTESIAN_POINT('',(0.,100.,-239.823926070279));
#771=CARTESIAN_POINT('',(0.,18.8920551433963,-238.408181626616));
#772=CARTESIAN_POINT('',(0.,100.,-239.823926070279));
#773=CARTESIAN_POINT('',(-1.,100.,-239.823926070279));
#774=CARTESIAN_POINT('',(0.,100.,-239.823926070279));
#775=CARTESIAN_POINT('',(-1.,18.8920551433963,-238.408181626616));
#776=CARTESIAN_POINT('',(-1.,100.,-239.823926070279));
#777=CARTESIAN_POINT('',(0.,18.8920551433963,-238.408181626616));
#778=CARTESIAN_POINT('Origin',(0.,19.05,-229.359559995542));
#779=CARTESIAN_POINT('',(0.,10.,-229.359551985071));
#780=CARTESIAN_POINT('Origin',(0.,19.05,-229.359559995542));
#781=CARTESIAN_POINT('',(-1.,10.,-229.359551985071));
#782=CARTESIAN_POINT('Origin',(-1.,19.05,-229.359559995542));
#783=CARTESIAN_POINT('',(0.,10.,-229.359551985071));
#784=CARTESIAN_POINT('Origin',(0.,10.,-20.6404400044578));
#785=CARTESIAN_POINT('',(0.,10.,-20.6404400044578));
#786=CARTESIAN_POINT('',(0.,10.,-20.6404400044578));
#787=CARTESIAN_POINT('',(-1.,10.,-20.6404400044578));
#788=CARTESIAN_POINT('',(-1.,10.,-20.6404400044578));
#789=CARTESIAN_POINT('',(0.,10.,-20.6404400044578));
#790=CARTESIAN_POINT('Origin',(0.,19.05,-20.6404400044578));
#791=CARTESIAN_POINT('',(0.,18.8920557217426,-11.5918183632925));
#792=CARTESIAN_POINT('Origin',(0.,19.05,-20.6404400044578));
#793=CARTESIAN_POINT('',(-1.,18.8920557217426,-11.5918183632925));
#794=CARTESIAN_POINT('Origin',(-1.,19.05,-20.6404400044578));
#795=CARTESIAN_POINT('',(0.,18.8920557217426,-11.5918183632925));
#796=CARTESIAN_POINT('Origin',(0.,100.,-10.1760739297212));
#797=CARTESIAN_POINT('',(0.,100.,-10.1760739297212));
#798=CARTESIAN_POINT('',(0.,100.,-10.1760739297212));
#799=CARTESIAN_POINT('',(-1.,100.,-10.1760739297212));
#800=CARTESIAN_POINT('',(-1.,100.,-10.1760739297212));
#801=CARTESIAN_POINT('',(0.,100.,-10.1760739297212));
#802=CARTESIAN_POINT('Origin',(0.,100.,-239.823926070279));
#803=CARTESIAN_POINT('',(0.,100.,-239.823926070279));
#804=CARTESIAN_POINT('',(-1.,100.,-239.823926070279));
#805=CARTESIAN_POINT('Origin',(0.,18.7175316573698,-1.59334141172858));
#806=CARTESIAN_POINT('',(0.,110.,0.));
#807=CARTESIAN_POINT('',(0.,18.7175316573698,-1.59334141172858));
#808=CARTESIAN_POINT('',(0.,110.,-1.97215226305253E-30));
#809=CARTESIAN_POINT('',(-1.,110.,0.));
#810=CARTESIAN_POINT('',(0.,110.,0.));
#811=CARTESIAN_POINT('',(-1.,18.7175316573698,-1.59334141172858));
#812=CARTESIAN_POINT('',(-1.,110.,-1.97215226305253E-30));
#813=CARTESIAN_POINT('',(0.,18.7175316573698,-1.59334141172858));
#814=CARTESIAN_POINT('Origin',(0.,19.05,-20.6404400044578));
#815=CARTESIAN_POINT('',(0.,2.22044604925031E-15,-20.6404400044578));
#816=CARTESIAN_POINT('Origin',(0.,19.05,-20.6404400044578));
#817=CARTESIAN_POINT('',(-1.,0.,-20.6404400044578));
#818=CARTESIAN_POINT('Origin',(-1.,19.05,-20.6404400044578));
#819=CARTESIAN_POINT('',(0.,2.22044604925031E-15,-20.6404400044578));
#820=CARTESIAN_POINT('Origin',(0.,1.53094655794854E-14,-229.359559995542));
#821=CARTESIAN_POINT('',(0.,1.55431223447522E-14,-229.359559995542));
#822=CARTESIAN_POINT('',(0.,2.51404998735194E-15,-20.6404400044578));
#823=CARTESIAN_POINT('',(-1.,1.77635683940025E-14,-229.359559995542));
#824=CARTESIAN_POINT('',(-1.,2.51404998735194E-15,-20.6404400044578));
#825=CARTESIAN_POINT('',(0.,1.55431223447522E-14,-229.359559995542));
#826=CARTESIAN_POINT('Origin',(0.,19.05,-229.359559995542));
#827=CARTESIAN_POINT('',(0.,18.7175316573698,-248.406658588272));
#828=CARTESIAN_POINT('Origin',(0.,19.05,-229.359559995542));
#829=CARTESIAN_POINT('',(-1.,18.7175316573698,-248.406658588272));
#830=CARTESIAN_POINT('Origin',(-1.,19.05,-229.359559995542));
#831=CARTESIAN_POINT('',(0.,18.7175316573698,-248.406658588272));
#832=CARTESIAN_POINT('Origin',(0.,110.,-250.));
#833=CARTESIAN_POINT('',(0.,110.,-250.));
#834=CARTESIAN_POINT('',(0.,110.,-250.));
#835=CARTESIAN_POINT('',(-1.,110.,-250.));
#836=CARTESIAN_POINT('',(-1.,110.,-250.));
#837=CARTESIAN_POINT('',(0.,110.,-250.));
#838=CARTESIAN_POINT('Origin',(0.,110.,0.));
#839=CARTESIAN_POINT('',(0.,110.,-250.));
#840=CARTESIAN_POINT('',(-1.,110.,-250.));
#841=CARTESIAN_POINT('Origin',(0.,55.,-125.));
#842=CARTESIAN_POINT('Origin',(-1.,55.,-125.));
#843=CARTESIAN_POINT('',(0.,0.,0.));
#844=CARTESIAN_POINT('Origin',(20.6404400044578,19.05,0.));
#845=CARTESIAN_POINT('',(20.6404400044578,10.,0.));
#846=CARTESIAN_POINT('',(11.5918183632925,18.8920557217426,0.));
#847=CARTESIAN_POINT('Origin',(20.6404400044578,19.05,0.));
#848=CARTESIAN_POINT('',(11.5918183632925,18.8920557217426,1.));
#849=CARTESIAN_POINT('',(11.5918183632925,18.8920557217426,0.));
#850=CARTESIAN_POINT('',(20.6404400044578,10.,1.));
#851=CARTESIAN_POINT('Origin',(20.6404400044578,19.05,1.));
#852=CARTESIAN_POINT('',(20.6404400044578,10.,0.));
#853=CARTESIAN_POINT('Origin',(329.359551482399,10.,0.));
#854=CARTESIAN_POINT('',(329.359551482399,10.,0.));
#855=CARTESIAN_POINT('',(20.6404400044578,10.,0.));
#856=CARTESIAN_POINT('',(329.359551482399,10.,1.));
#857=CARTESIAN_POINT('',(20.6404400044578,10.,1.));
#858=CARTESIAN_POINT('',(329.359551482399,10.,0.));
#859=CARTESIAN_POINT('Origin',(329.359559995542,19.05,0.));
#860=CARTESIAN_POINT('',(338.408181697041,18.892059178077,0.));
#861=CARTESIAN_POINT('Origin',(329.359559995542,19.05,0.));
#862=CARTESIAN_POINT('',(338.408181697041,18.892059178077,1.));
#863=CARTESIAN_POINT('Origin',(329.359559995542,19.05,1.));
#864=CARTESIAN_POINT('',(338.408181697041,18.892059178077,0.));
#865=CARTESIAN_POINT('Origin',(339.823926070279,100.,0.));
#866=CARTESIAN_POINT('',(339.823926070279,100.,0.));
#867=CARTESIAN_POINT('',(339.823926070279,100.,0.));
#868=CARTESIAN_POINT('',(339.823926070279,100.,1.));
#869=CARTESIAN_POINT('',(339.823926070279,100.,1.));
#870=CARTESIAN_POINT('',(339.823926070279,100.,0.));
#871=CARTESIAN_POINT('Origin',(10.1760739297212,100.,0.));
#872=CARTESIAN_POINT('',(10.1760739297213,100.,0.));
#873=CARTESIAN_POINT('',(339.823926070279,100.,0.));
#874=CARTESIAN_POINT('',(10.1760739297213,100.,1.));
#875=CARTESIAN_POINT('',(339.823926070279,100.,1.));
#876=CARTESIAN_POINT('',(10.1760739297213,100.,0.));
#877=CARTESIAN_POINT('Origin',(11.5918183632925,18.8920557217426,0.));
#878=CARTESIAN_POINT('',(10.1760739297213,100.,0.));
#879=CARTESIAN_POINT('',(10.1760739297213,100.,1.));
#880=CARTESIAN_POINT('Origin',(348.406658588271,18.7175316573698,0.));
#881=CARTESIAN_POINT('',(350.,110.,0.));
#882=CARTESIAN_POINT('',(348.406658588271,18.7175316573698,0.));
#883=CARTESIAN_POINT('',(350.,110.,0.));
#884=CARTESIAN_POINT('',(350.,110.,1.));
#885=CARTESIAN_POINT('',(350.,110.,0.));
#886=CARTESIAN_POINT('',(348.406658588271,18.7175316573698,1.));
#887=CARTESIAN_POINT('',(350.,110.,1.));
#888=CARTESIAN_POINT('',(348.406658588271,18.7175316573698,0.));
#889=CARTESIAN_POINT('Origin',(329.359559995542,19.05,0.));
#890=CARTESIAN_POINT('',(329.359559995542,2.22044604925031E-14,0.));
#891=CARTESIAN_POINT('Origin',(329.359559995542,19.05,0.));
#892=CARTESIAN_POINT('',(329.359559995542,2.22044604925031E-14,1.));
#893=CARTESIAN_POINT('Origin',(329.359559995542,19.05,1.));
#894=CARTESIAN_POINT('',(329.359559995542,2.22044604925031E-14,0.));
#895=CARTESIAN_POINT('Origin',(20.6404400044578,2.51285356205376E-15,0.));
#896=CARTESIAN_POINT('',(20.6404400044578,2.22044604925031E-15,0.));
#897=CARTESIAN_POINT('',(20.6404400044578,2.51285356205376E-15,0.));
#898=CARTESIAN_POINT('',(20.6404400044578,2.22044604925031E-15,1.));
#899=CARTESIAN_POINT('',(20.6404400044578,2.51285356205376E-15,1.));
#900=CARTESIAN_POINT('',(20.6404400044578,2.22044604925031E-15,0.));
#901=CARTESIAN_POINT('Origin',(20.6404400044578,19.05,0.));
#902=CARTESIAN_POINT('',(1.59334141172858,18.7175316573698,0.));
#903=CARTESIAN_POINT('Origin',(20.6404400044578,19.05,0.));
#904=CARTESIAN_POINT('',(1.59334141172858,18.7175316573698,1.));
#905=CARTESIAN_POINT('Origin',(20.6404400044578,19.05,1.));
#906=CARTESIAN_POINT('',(1.59334141172858,18.7175316573698,0.));
#907=CARTESIAN_POINT('Origin',(0.,110.,0.));
#908=CARTESIAN_POINT('',(0.,110.,0.));
#909=CARTESIAN_POINT('',(0.,110.,0.));
#910=CARTESIAN_POINT('',(0.,110.,1.));
#911=CARTESIAN_POINT('',(0.,110.,1.));
#912=CARTESIAN_POINT('',(0.,110.,0.));
#913=CARTESIAN_POINT('Origin',(350.,110.,0.));
#914=CARTESIAN_POINT('',(350.,110.,0.));
#915=CARTESIAN_POINT('',(350.,110.,1.));
#916=CARTESIAN_POINT('Origin',(175.,55.,1.));
#917=CARTESIAN_POINT('Origin',(175.,55.,0.));
#918=CARTESIAN_POINT('',(0.,0.,0.));
#919=CARTESIAN_POINT('',(0.,0.,0.));
#920=UNCERTAINTY_MEASURE_WITH_UNIT(LENGTH_MEASURE(0.01),#928,
'DISTANCE_ACCURACY_VALUE',
'Maximum model space distance between geometric entities at asserted c
onnectivities');
#921=UNCERTAINTY_MEASURE_WITH_UNIT(LENGTH_MEASURE(0.01),#928,
'DISTANCE_ACCURACY_VALUE',
'Maximum model space distance between geometric entities at asserted c
onnectivities');
#922=UNCERTAINTY_MEASURE_WITH_UNIT(LENGTH_MEASURE(0.01),#928,
'DISTANCE_ACCURACY_VALUE',
'Maximum model space distance between geometric entities at asserted c
onnectivities');
#923=UNCERTAINTY_MEASURE_WITH_UNIT(LENGTH_MEASURE(0.01),#928,
'DISTANCE_ACCURACY_VALUE',
'Maximum model space distance between geometric entities at asserted c
onnectivities');
#924=(
GEOMETRIC_REPRESENTATION_CONTEXT(3)
GLOBAL_UNCERTAINTY_ASSIGNED_CONTEXT((#920))
GLOBAL_UNIT_ASSIGNED_CONTEXT((#928,#930,#931))
REPRESENTATION_CONTEXT('','3D')
);
#925=(
GEOMETRIC_REPRESENTATION_CONTEXT(3)
GLOBAL_UNCERTAINTY_ASSIGNED_CONTEXT((#921))
GLOBAL_UNIT_ASSIGNED_CONTEXT((#928,#930,#931))
REPRESENTATION_CONTEXT('','3D')
);
#926=(
GEOMETRIC_REPRESENTATION_CONTEXT(3)
GLOBAL_UNCERTAINTY_ASSIGNED_CONTEXT((#922))
GLOBAL_UNIT_ASSIGNED_CONTEXT((#928,#930,#931))
REPRESENTATION_CONTEXT('','3D')
);
#927=(
GEOMETRIC_REPRESENTATION_CONTEXT(3)
GLOBAL_UNCERTAINTY_ASSIGNED_CONTEXT((#923))
GLOBAL_UNIT_ASSIGNED_CONTEXT((#928,#930,#931))
REPRESENTATION_CONTEXT('','3D')
);
#928=(
LENGTH_UNIT()
NAMED_UNIT(*)
SI_UNIT(.MILLI.,.METRE.)
);
#929=(
LENGTH_UNIT()
NAMED_UNIT(*)
SI_UNIT($,.METRE.)
);
#930=(
NAMED_UNIT(*)
PLANE_ANGLE_UNIT()
SI_UNIT($,.RADIAN.)
);
#931=(
NAMED_UNIT(*)
SI_UNIT($,.STERADIAN.)
SOLID_ANGLE_UNIT()
);
#932=SHAPE_DEFINITION_REPRESENTATION(#935,#940);
#933=SHAPE_DEFINITION_REPRESENTATION(#936,#941);
#934=SHAPE_DEFINITION_REPRESENTATION(#937,#942);
#935=PRODUCT_DEFINITION_SHAPE('',$,#944);
#936=PRODUCT_DEFINITION_SHAPE('',$,#945);
#937=PRODUCT_DEFINITION_SHAPE('',$,#946);
#938=PRODUCT_DEFINITION_SHAPE($,$,#17);
#939=PRODUCT_DEFINITION_SHAPE($,$,#18);
#940=SHAPE_REPRESENTATION('',(#564,#611,#612),#924);
#941=SHAPE_REPRESENTATION('',(#565),#925);
#942=SHAPE_REPRESENTATION('',(#588),#926);
#943=PRODUCT_DEFINITION_CONTEXT('part definition',#954,'design');
#944=PRODUCT_DEFINITION('Hardcase_Gridfinity_Perimeter_Template',
'Hardcase_Gridfinity_Perimeter_Template',#947,#943);
#945=PRODUCT_DEFINITION('2026-06-07-12-46-21-203','Side Test',#948,#943);
#946=PRODUCT_DEFINITION('2026-06-07-12-46-21-213','Front Test',#949,#943);
#947=PRODUCT_DEFINITION_FORMATION('',$,#956);
#948=PRODUCT_DEFINITION_FORMATION('',$,#957);
#949=PRODUCT_DEFINITION_FORMATION('',$,#958);
#950=PRODUCT_RELATED_PRODUCT_CATEGORY(
'Hardcase_Gridfinity_Perimeter_Template',
'Hardcase_Gridfinity_Perimeter_Template',(#956));
#951=PRODUCT_RELATED_PRODUCT_CATEGORY('Side Test','Side Test',(#957));
#952=PRODUCT_RELATED_PRODUCT_CATEGORY('Front Test','Front Test',(#958));
#953=APPLICATION_PROTOCOL_DEFINITION('international standard',
'automotive_design',2009,#954);
#954=APPLICATION_CONTEXT(
'Core Data for Automotive Mechanical Design Process');
#955=PRODUCT_CONTEXT('part definition',#954,'mechanical');
#956=PRODUCT('Hardcase_Gridfinity_Perimeter_Template',
'Hardcase_Gridfinity_Perimeter_Template',$,(#955));
#957=PRODUCT('2026-06-07-12-46-21-203','Side Test',$,(#955));
#958=PRODUCT('2026-06-07-12-46-21-213','Front Test',$,(#955));
#959=PRESENTATION_STYLE_ASSIGNMENT((#960));
#960=SURFACE_STYLE_USAGE(.BOTH.,#961);
#961=SURFACE_SIDE_STYLE('',(#962));
#962=SURFACE_STYLE_FILL_AREA(#963);
#963=FILL_AREA_STYLE('Steel - Satin',(#964));
#964=FILL_AREA_STYLE_COLOUR('Steel - Satin',#965);
#965=COLOUR_RGB('Steel - Satin',0.627450980392157,0.627450980392157,0.627450980392157);
ENDSEC;
END-ISO-10303-21;
